<?xml version="1.0" encoding="utf-8"?>
<!-- Generator: Adobe Illustrator 20.1.0, SVG Export Plug-In . SVG Version: 6.00 Build 0)  -->
<svg version="1.1" id="Layer_1" xmlns="http://www.w3.org/2000/svg" xmlns:xlink="http://www.w3.org/1999/xlink" x="0px" y="0px"
	 viewBox="0 0 216 216" style="enable-background:new 0 0 216 216;" xml:space="preserve">
<style type="text/css">
	.st0{enable-background:new    ;}
	.st1{fill:#FFFFFF;}
</style>
<g class="st0">
	<path class="st1" d="M93.1,76.3c2,0,3.8,0.2,5.4,0.5c1.6,0.3,3.3,0.9,5.2,1.6l-2,8.6c-1.6-0.5-3.1-0.9-4.3-1.1s-2.6-0.4-4.2-0.4
		c-2.8,0-5.1,1-6.8,3c-1.7,2-2.5,4.9-2.4,8.7l0.1,0.2c1-1.2,2.4-2.1,4.1-2.7c1.7-0.7,3.7-1,5.8-1c4.6,0,8.1,1.6,10.7,4.9
		c2.5,3.3,3.8,7.5,3.8,12.6c0,5.1-1.7,9.3-5,12.6c-3.4,3.4-7.7,5-12.9,5c-5.6,0-10.1-1.8-13.6-5.5s-5.2-8.7-5.2-15.1V98
		c0-6.8,2-12.1,6-15.9S86.9,76.3,93.1,76.3z M90.8,102.8c-1.6,0-3.1,0.2-4.2,0.7c-1.2,0.4-2.1,1.1-2.8,1.9v3c0,3.7,0.6,6.5,1.8,8.5
		c1.2,2,2.9,3,5,3c1.8,0,3.2-0.8,4.4-2.5s1.7-3.7,1.7-6c0-2.6-0.5-4.6-1.6-6.2C93.9,103.6,92.5,102.8,90.8,102.8z"/>
	<path class="st1" d="M149.3,108c0,6.9-1.6,12.1-4.8,15.7s-7.5,5.3-13,5.3c-5.5,0-9.8-1.8-13-5.3s-4.8-8.7-4.8-15.7V97.2
		c0-6.9,1.6-12.1,4.8-15.7s7.5-5.3,13-5.3c5.5,0,9.8,1.8,13,5.3s4.8,8.8,4.8,15.6V108z M137.4,96.4c0-3.9-0.5-6.7-1.5-8.4
		s-2.5-2.6-4.5-2.6c-2,0-3.5,0.9-4.4,2.6s-1.5,4.5-1.5,8.4v12.3c0,4,0.5,6.8,1.5,8.5s2.5,2.5,4.5,2.5c1.9,0,3.4-0.8,4.4-2.5
		s1.5-4.5,1.5-8.5V96.4z"/>
</g>
</svg>
