<?xml version="1.0" encoding="utf-8"?>
<!-- Generator: Adobe Illustrator 20.1.0, SVG Export Plug-In . SVG Version: 6.00 Build 0)  -->
<svg version="1.1" id="Layer_1" xmlns="http://www.w3.org/2000/svg" xmlns:xlink="http://www.w3.org/1999/xlink" x="0px" y="0px"
	 viewBox="0 0 216 216" style="enable-background:new 0 0 216 216;" xml:space="preserve">
<style type="text/css">
	.st0{fill:#FFFFFF;}
</style>
<g>
	<polygon class="st0" points="90.4,93.7 81.6,108 91,108 91,92.4 91,92.3 	"/>
	<path class="st0" d="M110.6,15.1c-50.8,0-92,41.2-92,92c0,50.8,41.2,92,92,92s92-41.2,92-92C202.6,56.3,161.4,15.1,110.6,15.1z
		 M109,117h-6v11H91v-11H71.7l-1-7.1L91,77.1V77h12v31h6V117z M144.8,123.9c-3.1,3.3-7.5,5-13.2,5c-4.9,0-9.1-1.3-12.7-4
		c-3.6-2.7-5.3-6.3-5.2-10.7l0.1-0.2l11.6-0.7c0,2,0.6,3.6,1.7,4.8c1.1,1.1,2.6,1.7,4.5,1.7c2.2,0,3.7-0.8,4.6-2.3s1.4-3.4,1.4-5.7
		c0-2.8-0.5-5-1.5-6.6s-2.6-2.4-4.8-2.4c-1.6,0-2.9,0.3-3.8,1c-1,0.7-1.6,1.5-2,2.6l-10.7-0.6l3-28.7H148v9h-20.7L126,96.8
		c0.9-0.7,2-1.2,3.3-1.6s2.8-0.6,4.4-0.7c5-0.1,8.9,1.4,11.6,4.4c2.7,3,4,7.3,4,12.8C149.4,116.5,147.8,120.6,144.8,123.9z"/>
</g>
</svg>
