<?xml version="1.0" encoding="utf-8"?>
<!-- Generator: Adobe Illustrator 20.1.0, SVG Export Plug-In . SVG Version: 6.00 Build 0)  -->
<svg version="1.1" id="Layer_1" xmlns="http://www.w3.org/2000/svg" xmlns:xlink="http://www.w3.org/1999/xlink" x="0px" y="0px"
	 viewBox="0 0 216 216" style="enable-background:new 0 0 216 216;" xml:space="preserve">
<style type="text/css">
	.st0{fill:#FFFFFF;}
</style>
<g>
	<path class="st0" d="M97.3,128.2H85.4V88.9H74v-8.4L97.3,77V128.2z"/>
	<path class="st0" d="M114.7,105.7l3-28.7h30v9.1h-20.4L126,96.9c0.9-0.7,2-1.2,3.3-1.7s2.8-0.7,4.4-0.7c5-0.1,8.9,1.4,11.6,4.4
		c2.7,3,4,7.3,4,12.8c0,4.8-1.5,8.9-4.6,12.2s-7.5,5-13.2,5c-4.9,0-9.1-1.3-12.7-4c-3.6-2.7-5.3-6.3-5.2-10.7l0.1-0.2l11.6-0.7
		c0,2,0.6,3.6,1.7,4.8c1.1,1.1,2.6,1.7,4.5,1.7c2.2,0,3.7-0.8,4.6-2.3s1.4-3.4,1.4-5.7c0-2.8-0.5-5-1.5-6.6s-2.6-2.4-4.8-2.4
		c-1.6,0-2.9,0.3-3.8,1c-1,0.7-1.6,1.5-2,2.6L114.7,105.7z"/>
</g>
</svg>
