<?xml version="1.0" encoding="utf-8"?>
<!-- Generator: Adobe Illustrator 20.1.0, SVG Export Plug-In . SVG Version: 6.00 Build 0)  -->
<svg version="1.1" id="Layer_1" xmlns="http://www.w3.org/2000/svg" xmlns:xlink="http://www.w3.org/1999/xlink" x="0px" y="0px"
	 viewBox="0 0 216 216" style="enable-background:new 0 0 216 216;" xml:space="preserve">
<style type="text/css">
	.st0{fill:#FFFFFF;}
</style>
<g>
	<path class="st0" d="M82.9,97.6h5.6c2.1,0,3.8-0.6,4.9-1.7c1.1-1.1,1.7-2.7,1.7-4.8c0-1.6-0.5-3-1.5-4.1c-1-1.1-2.5-1.7-4.5-1.7
		c-1.5,0-2.9,0.4-4.1,1.3c-1.2,0.9-1.8,2-1.8,3.4H71.7L71.6,90c-0.1-4.1,1.5-7.4,4.8-9.9c3.4-2.5,7.4-3.8,12.2-3.8
		c5.6,0,10,1.3,13.3,3.8c3.3,2.5,5,6.1,5,10.8c0,2.3-0.7,4.5-2.2,6.4c-1.4,2-3.4,3.5-5.8,4.6c2.7,1,4.9,2.5,6.4,4.6
		c1.5,2.1,2.3,4.5,2.3,7.4c0,4.7-1.8,8.4-5.4,11.1c-3.6,2.7-8.2,4-13.7,4c-4.8,0-9-1.3-12.6-3.8c-3.6-2.5-5.3-6.2-5.2-11l0.1-0.2
		h11.6c0,1.6,0.6,3,1.9,4.1c1.3,1.1,2.8,1.7,4.7,1.7c2.1,0,3.7-0.6,5-1.8c1.2-1.2,1.9-2.6,1.9-4.4c0-2.5-0.7-4.3-2-5.4
		c-1.3-1.1-3.1-1.7-5.5-1.7h-5.6V97.6z"/>
	<path class="st0" d="M149.3,108c0,6.9-1.6,12.1-4.8,15.7c-3.2,3.5-7.5,5.3-13,5.3c-5.5,0-9.8-1.8-13-5.3c-3.2-3.5-4.8-8.7-4.8-15.7
		V97.2c0-6.9,1.6-12.1,4.8-15.7c3.2-3.5,7.5-5.3,13-5.3c5.5,0,9.8,1.8,13,5.3c3.2,3.5,4.8,8.8,4.8,15.6V108z M137.4,96.4
		c0-3.9-0.5-6.7-1.5-8.4c-1-1.7-2.5-2.6-4.5-2.6c-2,0-3.5,0.9-4.4,2.6c-1,1.7-1.5,4.5-1.5,8.4v12.3c0,4,0.5,6.8,1.5,8.5
		c1,1.7,2.5,2.5,4.5,2.5c1.9,0,3.4-0.8,4.4-2.5c1-1.7,1.5-4.5,1.5-8.5V96.4z"/>
</g>
</svg>
